<?xml version="1.0" encoding="UTF-8" standalone="no"?>
<svg
   xmlns:dc="http://purl.org/dc/elements/1.1/"
   xmlns:cc="http://creativecommons.org/ns#"
   xmlns:rdf="http://www.w3.org/1999/02/22-rdf-syntax-ns#"
   xmlns:svg="http://www.w3.org/2000/svg"
   xmlns="http://www.w3.org/2000/svg"
   viewBox="0 0 557.33331 453.33334"
   height="453.33334"
   width="557.33331"
   xml:space="preserve"
   id="svg2"
   version="1.1"><metadata
     id="metadata8"><rdf:RDF><cc:Work
         rdf:about=""><dc:format>image/svg+xml</dc:format><dc:type
           rdf:resource="http://purl.org/dc/dcmitype/StillImage" /></cc:Work></rdf:RDF></metadata><defs
     id="defs6" /><g
     transform="matrix(1.3333333,0,0,-1.3333333,0,453.33333)"
     id="g10"><g
       transform="scale(0.1)"
       id="g12"><path
         id="path14"
         style="fill:#ed1c24;fill-opacity:1;fill-rule:evenodd;stroke:none"
         d="m 851.125,558.793 c 356.985,478.567 1245.925,754.987 2398.185,537.527 702.92,-190.203 618.29,-650.527 62.02,-975.816 496.7,272.559 728.59,535.113 640.9,785.613 C 3754.27,1309.01 3241.9,1466.64 2492.64,1439.51 1388.83,1323.33 951.418,994.773 851.125,558.793" /><path
         id="path16"
         style="fill:#fbc707;fill-opacity:1;fill-rule:evenodd;stroke:none"
         d="M 751.891,2266.47 C 1445.5,2712 2269.02,2911.16 3282.39,2750.24 c 438.98,-50.99 714.62,-205.36 665.7,-525.12 -125.01,-196.42 -362.86,-325.97 -636.76,-434.16 298.83,62.29 541.92,173.42 702.92,351.46 198.47,197.1 209.5,388.67 33.08,574.74 -250.15,197.1 -641.58,281.17 -1112.26,301.84 -1053.95,25.24 -1858.34,-201.66 -2183.179,-752.53" /><path
         id="path18"
         style="fill:#2e3192;fill-opacity:1;fill-rule:evenodd;stroke:none"
         d="m 1062,2713.03 c 167.12,100.95 335.95,182.95 508.58,223.27 387.64,307.36 851.42,435.54 1426.51,301.85 -421.75,198.47 -849.01,203.98 -1281.79,16.54 -292.21,-118.52 -493.44,-312.86 -653.3,-541.66" /><path
         id="path20"
         style="fill:#2e3192;fill-opacity:1;fill-rule:evenodd;stroke:none"
         d="m 756.023,1865.39 347.327,144.72 c 27.31,150.66 67.79,302.78 144.72,458.96 -166.76,-57.9 -311.48,-146.11 -434.156,-264.62 l -57.891,-339.06" /><path
         id="path22"
         style="fill:#2e3192;fill-opacity:1;fill-rule:evenodd;stroke:none"
         d="M 1170.22,1147.54 916.086,911.996 750.793,1463.66 l 303.727,126.03 115.7,-442.15" /><path
         id="path24"
         style="fill:#2e3192;fill-opacity:1;fill-rule:evenodd;stroke:none"
         d="M 1078.54,674.57 C 1381.07,265.051 1755.96,54.5234 2190.8,8.86328 2657,21.4414 3013.28,118.957 3236.91,318.977 2878.55,135.668 2487.13,106.727 2062.63,232.145 1768.7,357.219 1533.71,567.41 1339.03,835.828 L 1078.54,674.57" /><path
         id="path26"
         style="fill:#00a650;fill-opacity:1;fill-rule:evenodd;stroke:none"
         d="m 913.148,1154.21 c -437.285,-29.32 -656.742,22.54 -487.906,219.14 877.618,472.06 1778.308,713.25 2700.028,744.26 -78.57,79.94 -267.39,110.27 -566.47,90.97 -801.04,-59.1 -1548.91,-290.97 -2261.737,-636.76 -346.1099,-200.51 -405.395,-356.25 -45.485,-446.56 225.86,-25.04 446.727,-17.63 661.57,28.95" /><path
         id="path28"
         style="fill:#2848a3;fill-opacity:1;fill-rule:nonzero;stroke:none"
         d="m 2007.12,2310.13 c 0,-28.88 -26.45,-43.21 -79.35,-43.21 -41.89,0 -141.08,19.4 -297.81,58.2 -73.18,-41.89 -109.78,-94.35 -109.78,-157.61 0,-30.64 10.59,-51.8 31.75,-63.27 30.42,2.43 53.56,3.75 68.99,3.75 44.75,0 67.24,-5.29 67.24,-16.09 0,-6.83 -11.91,-10.36 -35.5,-10.36 -30.19,0 -62.82,4.41 -98.3,13.01 -47.84,-7.06 -103.39,-25.57 -166.65,-55.55 -161.14,-77.16 -241.6,-177.01 -241.6,-299.57 0,-81.34 43.87,-133.14 131.6,-154.97 -15.87,26.24 -23.8,56.43 -23.8,91.04 0,84.65 43.2,162.9 129.83,234.32 86.63,71.42 181.41,107.13 284.36,107.13 47.39,0 85.08,-11.68 113.08,-34.82 28,-23.37 41.88,-54.45 41.88,-93.69 0,-83.98 -46.07,-159.59 -138.21,-227.05 -92.36,-67.23 -195.96,-100.95 -311.47,-100.95 -23.37,0 -44.97,1.32 -65.25,3.97 41.22,-55.55 102.72,-83.33 184.06,-83.33 50.48,0 91.7,7.49 123.44,22.71 l 7.72,1.1 c 2.64,-0.88 3.97,-2.43 3.97,-5.07 0,-5.95 -15.87,-12.34 -47.84,-19.18 -31.74,-6.61 -60.84,-9.92 -87.29,-9.92 -89.94,0 -158.71,32.41 -206.1,97.43 -65.69,14.77 -117.27,39.46 -154.53,74.73 -37.25,35.05 -55.76,75.83 -55.76,122.34 0,62.38 25.79,120.8 77.59,175.24 51.58,54.45 120.57,95.67 206.76,123.67 52.03,17.19 111.54,29.75 178.77,37.47 -47.83,20.28 -71.64,52.24 -71.64,96.11 0,56.43 34.83,103.6 104.49,141.51 -99.86,24.03 -182.3,36.16 -247.33,36.16 -127.41,0 -236.08,-31.97 -325.795,-95.67 C 908.93,2216 863.961,2139.07 863.961,2048.7 c 0,-40.57 11.902,-75.17 35.488,-104.05 23.805,-28.88 52.02,-43.2 85.305,-43.2 22.706,0 34.166,3.75 34.166,11.02 0,3.74 -3.97,5.07 -12.34,3.74 -22.705,0 -34.166,10.59 -34.166,31.75 0,12.12 5.066,22.26 15.207,30.86 10.141,8.6 22.259,13 36.589,13 27.56,0 41.22,-13.44 41.22,-40.11 0,-17.64 -7.93,-32.63 -23.58,-44.75 -15.65,-12.35 -34.83,-18.52 -57.096,-18.52 -40.117,0 -74.285,18.08 -102.277,54.01 -28.219,35.93 -42.325,79.35 -42.325,130.05 0,76.27 33.067,146.15 99.414,209.85 78.914,75.83 189.354,113.74 331.974,113.74 79.13,0 184.72,-16.08 316.32,-48.49 59.52,28.88 128.73,43.2 207.43,43.2 58.63,0 108.45,-7.93 149.89,-23.58 41.22,-15.65 61.94,-34.61 61.94,-57.09 z m -13.67,1.32 c 0,16.75 -17.85,31.74 -53.34,44.53 -35.49,13 -76.27,19.4 -122.34,19.4 -63.27,0 -120.8,-13.67 -173.04,-41.22 114.18,-37.03 210.07,-55.55 288.11,-55.55 40.34,0 60.61,11.02 60.61,32.84 z m -182.07,-417.72 c 0,30.86 -12.35,56.65 -36.81,76.71 -24.47,20.28 -55.55,30.42 -93.03,30.42 -92.58,0 -183.18,-38.36 -271.35,-115.29 -88.39,-76.71 -132.48,-155.18 -132.48,-235.42 0,-23.14 7.06,-46.73 21.38,-70.98 24.91,-4.63 48.06,-7.05 69,-7.05 101.62,0 201.03,35.27 298.02,105.59 96.77,70.31 145.27,142.4 145.27,216.02 z m 573.57,-104.48 c 0,-9.26 -31.31,-50.92 -93.69,-125.43 -51.36,-61.06 -91.48,-91.7 -120.8,-91.7 -19.4,0 -35.71,7.5 -48.93,22.7 -13.01,14.99 -19.62,33.51 -19.62,55.33 0,19.4 3.97,37.48 11.9,54.01 7.94,16.53 28.88,49.38 62.39,98.54 34.82,51.57 52.24,84.42 52.24,98.75 0,17.63 -9.26,26.45 -27.78,26.45 -62.82,0 -159.59,-116.61 -290.53,-350.05 -21.16,1.77 -33.72,2.65 -38.13,2.65 -14.99,0 -29.1,-0.88 -42.55,-2.65 l 100.74,159.6 c 57.31,91.25 85.97,148.35 85.97,171.05 0,13 -5.29,19.4 -16.09,19.4 -22.04,0 -65.25,-46.29 -129.84,-138.88 -3.96,-5.5 -7.05,-8.59 -9.03,-9.03 -2.21,0 -3.53,1.32 -3.97,3.97 0.44,1.98 1.32,3.74 2.64,5.06 l 12.13,16.1 c 65.91,88.39 110.21,132.48 133.14,132.48 14.55,0 27.11,-6.62 37.47,-20.06 10.36,-13.23 15.43,-29.32 15.43,-47.84 0,-27.55 -16.09,-65.68 -48.49,-114.84 50.91,70.1 89.93,118.15 117.27,143.94 27.33,25.79 52.68,38.8 75.82,38.8 18.97,0 35.06,-7.72 47.84,-23.15 13,-15.65 19.4,-34.82 19.4,-57.53 0,-28.88 -19.84,-72.96 -59.52,-132.48 -40.34,-60.62 -60.62,-99.42 -60.62,-116.17 0,-17.63 8.82,-26.45 26.46,-26.45 38.35,0 104.48,68.33 198.39,204.78 2.2,4.19 4.4,6.39 6.61,6.39 2.42,0 3.75,-1.32 3.75,-3.74 z m 238.5,148.35 -5.29,-9.7 h -84.43 l -144.16,-246.01 c -17.63,-29.75 -26.45,-53.34 -26.45,-70.98 0,-19.39 10.14,-29.09 30.42,-29.09 39.24,0 105.14,68.33 198.17,204.78 3.08,4.19 5.73,6.39 7.93,6.39 2.43,0 3.75,-1.32 3.75,-3.74 -0.44,-1.33 -2.64,-4.86 -6.39,-10.36 l -27.77,-38.14 c -81.12,-112.42 -141.96,-168.63 -182.96,-168.63 -20.06,0 -37.04,7.27 -50.7,22.04 -13.45,14.55 -20.28,32.85 -20.28,54.89 0,25.79 11.46,57.97 34.16,96.77 l 108.68,182.08 h -65.92 l 6.4,9.7 h 64.59 l 75.6,125.2 c 13.01,-3.52 25.13,-5.07 36.82,-5.07 12.12,0 24.47,1.55 37.47,5.07 l -74.29,-125.2 z m 305.08,-148.35 c 0,-1.33 -3.75,-7.05 -11.68,-16.98 l -27.56,-34.82 c -89.27,-110.22 -165.76,-165.33 -229.47,-165.33 -29.98,0 -55.32,10.8 -75.83,32.63 -20.5,21.82 -30.63,48.93 -30.63,81.55 0,77.59 54,145.93 162.01,204.79 56.87,31.08 103.16,46.51 138.87,46.51 15.43,0 28.66,-4.63 39.68,-13.89 11.03,-9.26 16.53,-20.5 16.53,-33.95 0,-30.86 -20.28,-57.31 -60.61,-79.13 -40.57,-21.61 -108.02,-41.88 -202.8,-60.84 -29.32,-44.53 -43.87,-81.34 -43.87,-111.1 0,-37.03 20.06,-55.55 59.96,-55.55 68.11,0 151.44,66.57 249.97,199.49 5.07,6.84 9.48,10.36 13.01,10.36 1.53,-0.44 2.42,-1.76 2.42,-3.74 z m -54.23,119.25 c 0,13.89 -7.49,20.72 -22.48,20.72 -22.93,0 -52.91,-15.87 -90.16,-47.39 -37.25,-31.74 -73.62,-72.74 -109.34,-123 61.95,15.87 114.41,38.35 157.39,67.45 42.99,29.1 64.59,56.43 64.59,82.22 z m 393.48,338.36 c -180.76,-300.89 -286.35,-477.89 -316.1,-530.8 -29.98,-52.9 -44.97,-87.95 -44.97,-105.15 0,-19.39 8.15,-29.09 24.47,-29.09 36.37,0 102.71,68.33 199.04,204.78 2.21,4.19 4.85,6.39 7.94,6.39 1.54,-0.44 2.43,-1.76 2.43,-3.74 0,-2.65 -2.21,-6.18 -6.4,-10.36 l -27.77,-38.14 c -81.34,-112.42 -141.52,-168.63 -180.31,-168.63 -18.52,0 -33.73,7.05 -45.41,20.94 -11.91,14.11 -17.86,31.74 -17.86,53.35 0,23.58 5.51,46.51 16.53,68.77 11.02,22.05 48.27,86.19 111.98,192 78.03,129.61 143.72,241.81 197.07,337.04 13.01,-3.53 24.25,-5.07 34.17,-5.07 16.31,0 31.52,2.42 45.19,7.71 z m 211.83,0 c -180.75,-300.89 -286.34,-477.89 -316.1,-530.8 -29.98,-52.9 -44.97,-87.95 -44.97,-105.15 0,-19.39 8.16,-29.09 24.47,-29.09 36.37,0 102.72,68.33 199.05,204.78 2.21,4.19 4.85,6.39 7.94,6.39 1.54,-0.44 2.42,-1.76 2.42,-3.74 0,-2.65 -2.21,-6.18 -6.39,-10.36 l -27.78,-38.14 c -81.34,-112.42 -141.52,-168.63 -180.31,-168.63 -18.51,0 -33.73,7.05 -45.41,20.94 -11.9,14.11 -17.85,31.74 -17.85,53.35 0,23.58 5.51,46.51 16.53,68.77 11.02,22.05 48.27,86.19 111.98,192 78.03,129.61 143.72,241.81 197.06,337.04 13.01,-3.53 24.25,-5.07 34.17,-5.07 16.31,0 31.52,2.42 45.19,7.71 z m 286.78,-457.61 c 0,-9.92 -31.3,-51.8 -93.68,-125.43 -51.58,-61.06 -92.58,-91.7 -122.56,-91.7 -18.95,0 -35.05,7.72 -48.27,22.92 -13.01,15.21 -19.62,33.73 -19.62,55.11 0,16.76 8.37,40.34 25.13,70.54 l -12.79,-17.64 c -39.68,-50.69 -68.77,-84.64 -87.29,-101.83 -20.06,-19.4 -39.24,-29.1 -57.31,-29.1 -18.96,0 -35.05,7.5 -47.84,22.26 -13,14.77 -19.39,33.07 -19.39,54.45 0,25.13 9.69,53.79 29.09,85.97 l 117.49,197.51 c 14.77,-3.09 26.01,-4.41 34.39,-4.41 8.15,0 22.71,1.32 43.87,4.41 l -153.65,-253.06 c -15.65,-25.79 -23.36,-48.5 -23.36,-68.34 0,-19.39 8.15,-29.09 24.47,-29.09 43.64,0 113.3,81.12 209.41,243.36 l 63.26,107.13 c 13.23,-3.09 24.47,-4.41 33.51,-4.41 10.8,0 26.01,1.32 45.85,4.41 l -103.39,-168.42 c -49.15,-80.01 -73.62,-131.59 -73.62,-154.3 0,-18.51 8.82,-27.77 26.45,-27.77 34.39,0 90.38,54.22 167.97,162.68 l 19.84,27.77 11.68,14.33 c 2.21,4.19 4.41,6.39 6.61,6.39 2.43,0 3.75,-1.32 3.75,-3.74 z m 218.23,251.07 c 0,-17.41 -26.89,-51.58 -80.67,-102.72 -2.65,-13.45 -3.97,-25.13 -3.97,-35.05 0,-24.91 11.46,-64.37 34.38,-118.59 11.69,-27.12 17.42,-50.04 17.42,-68.56 0,-38.79 -18.74,-72.3 -56.43,-100.74 -37.7,-28.43 -82.45,-42.54 -134.03,-42.54 -29.32,0 -52.68,8.38 -70.09,24.91 -17.42,16.53 -26.23,38.8 -26.23,66.79 0,32.18 11.46,63.7 34.6,94.13 22.93,30.64 46.74,45.84 71.2,45.84 4.41,0 8.38,-0.88 11.68,-2.64 l 51.81,63.26 c 15.43,18.52 36.15,44.31 61.94,76.93 7.27,30.21 18.51,56 33.5,77.6 14.99,21.38 29.98,32.18 44.53,32.18 6.83,0 10.36,-3.53 10.36,-10.8 z m -89.72,-255.26 c 0,13.01 -0.44,25.79 -1.32,38.35 -0.88,12.79 -1.32,30.86 -1.32,54.67 0,19.4 0.88,35.49 2.64,48.5 -24.02,-30.64 -59.07,-73.63 -104.7,-129.18 8.16,-7.05 12.34,-15.43 12.34,-25.35 0,-25.35 -20.94,-42.54 -62.6,-51.58 -16.75,-3.74 -31.3,-13.01 -43.65,-27.33 -12.12,-14.55 -18.29,-29.54 -18.29,-45.63 0,-17.2 6.17,-31.52 18.74,-43.21 12.56,-11.68 27.99,-17.41 46.51,-17.41 36.15,0 70.32,20.94 102.94,63.04 32.4,41.89 48.71,86.85 48.71,135.13" /><path
         id="path30"
         style="fill:none;stroke:#2848a3;stroke-width:20.00130081;stroke-linecap:butt;stroke-linejoin:miter;stroke-miterlimit:2.61313009;stroke-dasharray:none;stroke-opacity:1"
         d="m 2007.12,2310.13 c 0,-28.88 -26.45,-43.21 -79.35,-43.21 -41.89,0 -141.08,19.4 -297.81,58.2 -73.18,-41.89 -109.78,-94.35 -109.78,-157.61 0,-30.64 10.59,-51.8 31.75,-63.27 30.42,2.43 53.56,3.75 68.99,3.75 44.75,0 67.24,-5.29 67.24,-16.09 0,-6.83 -11.91,-10.36 -35.5,-10.36 -30.19,0 -62.82,4.41 -98.3,13.01 -47.84,-7.06 -103.39,-25.57 -166.65,-55.55 -161.14,-77.16 -241.6,-177.01 -241.6,-299.57 0,-81.34 43.87,-133.14 131.6,-154.97 -15.87,26.24 -23.8,56.43 -23.8,91.04 0,84.65 43.2,162.9 129.83,234.32 86.63,71.42 181.41,107.13 284.36,107.13 47.39,0 85.08,-11.68 113.08,-34.82 28,-23.37 41.88,-54.45 41.88,-93.69 0,-83.98 -46.07,-159.59 -138.21,-227.05 -92.36,-67.23 -195.96,-100.95 -311.47,-100.95 -23.37,0 -44.97,1.32 -65.25,3.97 41.22,-55.55 102.72,-83.33 184.06,-83.33 50.48,0 91.7,7.49 123.44,22.71 l 7.72,1.1 c 2.64,-0.88 3.97,-2.43 3.97,-5.07 0,-5.95 -15.87,-12.34 -47.84,-19.18 -31.74,-6.61 -60.84,-9.92 -87.29,-9.92 -89.94,0 -158.71,32.41 -206.1,97.43 -65.69,14.77 -117.27,39.46 -154.53,74.73 -37.25,35.05 -55.76,75.83 -55.76,122.34 0,62.38 25.79,120.8 77.59,175.24 51.58,54.45 120.57,95.67 206.76,123.67 52.03,17.19 111.54,29.75 178.77,37.47 -47.83,20.28 -71.64,52.24 -71.64,96.11 0,56.43 34.83,103.6 104.49,141.51 -99.86,24.03 -182.3,36.16 -247.33,36.16 -127.41,0 -236.08,-31.97 -325.795,-95.67 C 908.93,2216 863.961,2139.07 863.961,2048.7 c 0,-40.57 11.902,-75.17 35.488,-104.05 23.805,-28.88 52.02,-43.2 85.305,-43.2 22.706,0 34.166,3.75 34.166,11.02 0,3.74 -3.97,5.07 -12.34,3.74 -22.705,0 -34.166,10.59 -34.166,31.75 0,12.12 5.066,22.26 15.207,30.86 10.141,8.6 22.259,13 36.589,13 27.56,0 41.22,-13.44 41.22,-40.11 0,-17.64 -7.93,-32.63 -23.58,-44.75 -15.65,-12.35 -34.83,-18.52 -57.096,-18.52 -40.117,0 -74.285,18.08 -102.277,54.01 -28.219,35.93 -42.325,79.35 -42.325,130.05 0,76.27 33.067,146.15 99.414,209.85 78.914,75.83 189.354,113.74 331.974,113.74 79.13,0 184.72,-16.08 316.32,-48.49 59.52,28.88 128.73,43.2 207.43,43.2 58.63,0 108.45,-7.93 149.89,-23.58 41.22,-15.65 61.94,-34.61 61.94,-57.09 z m -13.67,1.32 c 0,16.75 -17.85,31.74 -53.34,44.53 -35.49,13 -76.27,19.4 -122.34,19.4 -63.27,0 -120.8,-13.67 -173.04,-41.22 114.18,-37.03 210.07,-55.55 288.11,-55.55 40.34,0 60.61,11.02 60.61,32.84 z m -182.07,-417.72 c 0,30.86 -12.35,56.65 -36.81,76.71 -24.47,20.28 -55.55,30.42 -93.03,30.42 -92.58,0 -183.18,-38.36 -271.35,-115.29 -88.39,-76.71 -132.48,-155.18 -132.48,-235.42 0,-23.14 7.06,-46.73 21.38,-70.98 24.91,-4.63 48.06,-7.05 69,-7.05 101.62,0 201.03,35.27 298.02,105.59 96.77,70.31 145.27,142.4 145.27,216.02 z m 573.57,-104.48 c 0,-9.26 -31.31,-50.92 -93.69,-125.43 -51.36,-61.06 -91.48,-91.7 -120.8,-91.7 -19.4,0 -35.71,7.5 -48.93,22.7 -13.01,14.99 -19.62,33.51 -19.62,55.33 0,19.4 3.97,37.48 11.9,54.01 7.94,16.53 28.88,49.38 62.39,98.54 34.82,51.57 52.24,84.42 52.24,98.75 0,17.63 -9.26,26.45 -27.78,26.45 -62.82,0 -159.59,-116.61 -290.53,-350.05 -21.16,1.77 -33.72,2.65 -38.13,2.65 -14.99,0 -29.1,-0.88 -42.55,-2.65 l 100.74,159.6 c 57.31,91.25 85.97,148.35 85.97,171.05 0,13 -5.29,19.4 -16.09,19.4 -22.04,0 -65.25,-46.29 -129.84,-138.88 -3.96,-5.5 -7.05,-8.59 -9.03,-9.03 -2.21,0 -3.53,1.32 -3.97,3.97 0.44,1.98 1.32,3.74 2.64,5.06 l 12.13,16.1 c 65.91,88.39 110.21,132.48 133.14,132.48 14.55,0 27.11,-6.62 37.47,-20.06 10.36,-13.23 15.43,-29.32 15.43,-47.84 0,-27.55 -16.09,-65.68 -48.49,-114.84 50.91,70.1 89.93,118.15 117.27,143.94 27.33,25.79 52.68,38.8 75.82,38.8 18.97,0 35.06,-7.72 47.84,-23.15 13,-15.65 19.4,-34.82 19.4,-57.53 0,-28.88 -19.84,-72.96 -59.52,-132.48 -40.34,-60.62 -60.62,-99.42 -60.62,-116.17 0,-17.63 8.82,-26.45 26.46,-26.45 38.35,0 104.48,68.33 198.39,204.78 2.2,4.19 4.4,6.39 6.61,6.39 2.42,0 3.75,-1.32 3.75,-3.74 z m 238.5,148.35 -5.29,-9.7 h -84.43 l -144.16,-246.01 c -17.63,-29.75 -26.45,-53.34 -26.45,-70.98 0,-19.39 10.14,-29.09 30.42,-29.09 39.24,0 105.14,68.33 198.17,204.78 3.08,4.19 5.73,6.39 7.93,6.39 2.43,0 3.75,-1.32 3.75,-3.74 -0.44,-1.33 -2.64,-4.86 -6.39,-10.36 l -27.77,-38.14 c -81.12,-112.42 -141.96,-168.63 -182.96,-168.63 -20.06,0 -37.04,7.27 -50.7,22.04 -13.45,14.55 -20.28,32.85 -20.28,54.89 0,25.79 11.46,57.97 34.16,96.77 l 108.68,182.08 h -65.92 l 6.4,9.7 h 64.59 l 75.6,125.2 c 13.01,-3.52 25.13,-5.07 36.82,-5.07 12.12,0 24.47,1.55 37.47,5.07 l -74.29,-125.2 z m 305.08,-148.35 c 0,-1.33 -3.75,-7.05 -11.68,-16.98 l -27.56,-34.82 c -89.27,-110.22 -165.76,-165.33 -229.47,-165.33 -29.98,0 -55.32,10.8 -75.83,32.63 -20.5,21.82 -30.63,48.93 -30.63,81.55 0,77.59 54,145.93 162.01,204.79 56.87,31.08 103.16,46.51 138.87,46.51 15.43,0 28.66,-4.63 39.68,-13.89 11.03,-9.26 16.53,-20.5 16.53,-33.95 0,-30.86 -20.28,-57.31 -60.61,-79.13 -40.57,-21.61 -108.02,-41.88 -202.8,-60.84 -29.32,-44.53 -43.87,-81.34 -43.87,-111.1 0,-37.03 20.06,-55.55 59.96,-55.55 68.11,0 151.44,66.57 249.97,199.49 5.07,6.84 9.48,10.36 13.01,10.36 1.53,-0.44 2.42,-1.76 2.42,-3.74 z m -54.23,119.25 c 0,13.89 -7.49,20.72 -22.48,20.72 -22.93,0 -52.91,-15.87 -90.16,-47.39 -37.25,-31.74 -73.62,-72.74 -109.34,-123 61.95,15.87 114.41,38.35 157.39,67.45 42.99,29.1 64.59,56.43 64.59,82.22 z m 393.48,338.36 c -180.76,-300.89 -286.35,-477.89 -316.1,-530.8 -29.98,-52.9 -44.97,-87.95 -44.97,-105.15 0,-19.39 8.15,-29.09 24.47,-29.09 36.37,0 102.71,68.33 199.04,204.78 2.21,4.19 4.85,6.39 7.94,6.39 1.54,-0.44 2.43,-1.76 2.43,-3.74 0,-2.65 -2.21,-6.18 -6.4,-10.36 l -27.77,-38.14 c -81.34,-112.42 -141.52,-168.63 -180.31,-168.63 -18.52,0 -33.73,7.05 -45.41,20.94 -11.91,14.11 -17.86,31.74 -17.86,53.35 0,23.58 5.51,46.51 16.53,68.77 11.02,22.05 48.27,86.19 111.98,192 78.03,129.61 143.72,241.81 197.07,337.04 13.01,-3.53 24.25,-5.07 34.17,-5.07 16.31,0 31.52,2.42 45.19,7.71 z m 211.83,0 c -180.75,-300.89 -286.34,-477.89 -316.1,-530.8 -29.98,-52.9 -44.97,-87.95 -44.97,-105.15 0,-19.39 8.16,-29.09 24.47,-29.09 36.37,0 102.72,68.33 199.05,204.78 2.21,4.19 4.85,6.39 7.94,6.39 1.54,-0.44 2.42,-1.76 2.42,-3.74 0,-2.65 -2.21,-6.18 -6.39,-10.36 l -27.78,-38.14 c -81.34,-112.42 -141.52,-168.63 -180.31,-168.63 -18.51,0 -33.73,7.05 -45.41,20.94 -11.9,14.11 -17.85,31.74 -17.85,53.35 0,23.58 5.51,46.51 16.53,68.77 11.02,22.05 48.27,86.19 111.98,192 78.03,129.61 143.72,241.81 197.06,337.04 13.01,-3.53 24.25,-5.07 34.17,-5.07 16.31,0 31.52,2.42 45.19,7.71 z m 286.78,-457.61 c 0,-9.92 -31.3,-51.8 -93.68,-125.43 -51.58,-61.06 -92.58,-91.7 -122.56,-91.7 -18.95,0 -35.05,7.72 -48.27,22.92 -13.01,15.21 -19.62,33.73 -19.62,55.11 0,16.76 8.37,40.34 25.13,70.54 l -12.79,-17.64 c -39.68,-50.69 -68.77,-84.64 -87.29,-101.83 -20.06,-19.4 -39.24,-29.1 -57.31,-29.1 -18.96,0 -35.05,7.5 -47.84,22.26 -13,14.77 -19.39,33.07 -19.39,54.45 0,25.13 9.69,53.79 29.09,85.97 l 117.49,197.51 c 14.77,-3.09 26.01,-4.41 34.39,-4.41 8.15,0 22.71,1.32 43.87,4.41 l -153.65,-253.06 c -15.65,-25.79 -23.36,-48.5 -23.36,-68.34 0,-19.39 8.15,-29.09 24.47,-29.09 43.64,0 113.3,81.12 209.41,243.36 l 63.26,107.13 c 13.23,-3.09 24.47,-4.41 33.51,-4.41 10.8,0 26.01,1.32 45.85,4.41 l -103.39,-168.42 c -49.15,-80.01 -73.62,-131.59 -73.62,-154.3 0,-18.51 8.82,-27.77 26.45,-27.77 34.39,0 90.38,54.22 167.97,162.68 l 19.84,27.77 11.68,14.33 c 2.21,4.19 4.41,6.39 6.61,6.39 2.43,0 3.75,-1.32 3.75,-3.74 z m 218.23,251.07 c 0,-17.41 -26.89,-51.58 -80.67,-102.72 -2.65,-13.45 -3.97,-25.13 -3.97,-35.05 0,-24.91 11.46,-64.37 34.38,-118.59 11.69,-27.12 17.42,-50.04 17.42,-68.56 0,-38.79 -18.74,-72.3 -56.43,-100.74 -37.7,-28.43 -82.45,-42.54 -134.03,-42.54 -29.32,0 -52.68,8.38 -70.09,24.91 -17.42,16.53 -26.23,38.8 -26.23,66.79 0,32.18 11.46,63.7 34.6,94.13 22.93,30.64 46.74,45.84 71.2,45.84 4.41,0 8.38,-0.88 11.68,-2.64 l 51.81,63.26 c 15.43,18.52 36.15,44.31 61.94,76.93 7.27,30.21 18.51,56 33.5,77.6 14.99,21.38 29.98,32.18 44.53,32.18 6.83,0 10.36,-3.53 10.36,-10.8 z m -89.72,-255.26 c 0,13.01 -0.44,25.79 -1.32,38.35 -0.88,12.79 -1.32,30.86 -1.32,54.67 0,19.4 0.88,35.49 2.64,48.5 -24.02,-30.64 -59.07,-73.63 -104.7,-129.18 8.16,-7.05 12.34,-15.43 12.34,-25.35 0,-25.35 -20.94,-42.54 -62.6,-51.58 -16.75,-3.74 -31.3,-13.01 -43.65,-27.33 -12.12,-14.55 -18.29,-29.54 -18.29,-45.63 0,-17.2 6.17,-31.52 18.74,-43.21 12.56,-11.68 27.99,-17.41 46.51,-17.41 36.15,0 70.32,20.94 102.94,63.04 32.4,41.89 48.71,86.85 48.71,135.13 z" /></g></g></svg>